<svg xmlns="http://www.w3.org/2000/svg" version="1.0" width="196.000000pt" height="114.000000pt" viewBox="0 0 196.000000 114.000000" preserveAspectRatio="xMidYMid meet">

<g transform="translate(0.000000,114.000000) scale(0.100000,-0.100000)" fill="#2196f3" stroke="none">
<path d="M1327 931 c-35 -8 -87 -50 -110 -90 l-18 -31 30 0 c20 0 43 -11 66 -31 31 -27 238 -320 252 -355 4 -11 -23 -14 -143 -15 l-149 0 -57 -79 c-32 -44 -54 -81 -49 -84 16 -10 761 -4 761 6 0 9 -91 143 -366 538 -89 128 -136 158 -217 141z" fill="#2196f3"/>
<path d="M234 906 c-94 -30 -141 -80 -151 -163 -10 -93 25 -159 107 -197 41 -19 68 -21 305 -26 143 -3 266 -9 273 -13 17 -12 15 -62 -5 -78 -12 -11 -77 -15 -297 -17 l-281 -3 -53 -69 c-84 -110 -108 -100 243 -99 168 0 339 4 380 8 95 11 159 42 193 94 23 35 27 51 27 118 0 93 -16 121 -91 159 -48 24 -56 25 -314 30 -146 3 -271 9 -277 13 -19 12 -15 76 6 122 22 47 49 74 111 109 l45 26 -90 -1 c-49 0 -108 -6 -131 -13z" fill="#2196f3"/>
<path d="M527 909 c-61 -14 -131 -55 -170 -98 -20 -23 -37 -46 -37 -51 0 -6 92 -10 254 -10 l254 0 54 73 c30 39 58 78 62 85 6 9 -34 12 -186 11 -106 -1 -210 -5 -231 -10z" fill="#2196f3"/>
<path d="M1091 668 l-84 -122 2 -73 c2 -89 -20 -147 -73 -189 -20 -16 -36 -33 -36 -37 0 -4 30 -7 67 -5 l68 3 88 125 c48 69 117 164 153 212 35 48 64 93 64 99 0 20 -49 78 -80 94 -65 34 -78 26 -169 -107z" fill="#2196f3"/>
</g>
</svg>